<?xml version="1.0" encoding="iso-8859-1"?>
<!-- Generator: Adobe Illustrator 19.0.0, SVG Export Plug-In . SVG Version: 6.00 Build 0)  -->
<svg version="1.1" id="Layer_1" xmlns="http://www.w3.org/2000/svg" xmlns:xlink="http://www.w3.org/1999/xlink" x="0px" y="0px"
	 viewBox="0 0 512 512" style="enable-background:new 0 0 512 512;" xml:space="preserve">
<path style="fill:#F28618;" d="M356.512,267.136c-1.131,0-2.272-0.119-3.424-0.353c-9.032-1.88-14.826-10.723-12.946-19.75
	l21.087-101.305c1.88-9.038,10.706-14.788,19.75-12.946c9.032,1.88,14.826,10.723,12.946,19.75l-21.087,101.305
	C371.197,261.718,364.251,267.136,356.512,267.136z"/>
<path style="fill:#F9A926;" d="M389.881,166.957c-46.032,0-83.478-37.446-83.478-83.478S343.849,0,389.881,0
	s83.478,37.446,83.478,83.478S435.915,166.957,389.881,166.957z"/>
<path style="fill:#FFD9B3;" d="M389.881,133.565c-27.619,0-50.087-22.468-50.087-50.087s22.468-50.087,50.087-50.087
	s50.087,22.468,50.087,50.087S417.501,133.565,389.881,133.565z"/>
<path style="fill:#FF9F19;" d="M156.121,267.136c-7.739,0-14.684-5.418-16.326-13.299l-21.077-101.305
	c-1.88-9.027,3.923-17.87,12.946-19.75c9.066-1.804,17.87,3.919,19.75,12.946l21.077,101.305c1.88,9.027-3.923,17.87-12.946,19.75
	C158.393,267.016,157.251,267.136,156.121,267.136z"/>
<circle style="fill:#5A6680;" cx="389.878" cy="83.478" r="16.696"/>
<g>
	<path style="fill:#FF9F19;" d="M20.197,433.544c-1.783,0-3.554-0.125-5.337-0.381c-9.13-1.304-15.478-9.761-14.173-18.886
		c1.304-9.13,9.826-15.516,18.892-14.168c2.913,0.441,6.206-2.566,7.5-3.864c6.098-6.098,10.065-16.549,9.021-23.799
		c-2.239-15.657,3.282-31.87,14.782-43.364c10.761-10.778,25.228-15.789,39.522-13.723c9.13,1.304,15.478,9.761,14.173,18.886
		c-1.304,9.125-9.848,15.446-18.892,14.168c-5.305-0.756-9.283,2.353-11.196,4.277c-4.033,4.038-6.076,9.799-5.326,15.033
		c2.511,17.619-4.913,38.57-18.479,52.13C41.751,428.793,31.088,433.544,20.197,433.544z"/>
	<path style="fill:#FF9F19;" d="M191.773,512c-5.077,0-10.088-2.304-13.37-6.674c-5.533-7.375-4.033-17.842,3.337-23.375
		c2.815-2.109,5.837-8.408,5.837-17.25c0-8.853-3.022-15.152-5.837-17.261c-12.011-9.011-19.184-24.929-19.184-42.565
		c0-17.652,7.174-33.565,19.184-42.576c7.402-5.533,17.848-4.044,23.381,3.337c5.533,7.375,4.033,17.837-3.337,23.369
		c-3.489,2.62-5.837,8.995-5.837,15.87c0,6.864,2.347,13.24,5.837,15.859c12.011,9.011,19.184,25.445,19.184,43.967
		c0,18.511-7.174,34.945-19.184,43.956C198.784,510.913,195.262,512,191.773,512z"/>
	<path style="fill:#FF9F19;" d="M97.458,483.147c-7.445,0-14.228-5.016-16.163-12.56c-2.283-8.929,3.098-18.027,12.033-20.315
		c2.869-0.733,6.131-4.615,8.316-9.881c3.782-9.13,3.141-18.581,0.62-22.842c-8.097-13.668-8.957-31.423-2.304-47.489
		c6.152-14.864,17.706-25.44,31.696-29.027c8.934-2.283,18.021,3.103,20.315,12.033c2.283,8.929-3.098,18.027-12.033,20.315
		c-3.652,0.935-7.066,4.473-9.13,9.456c-2.532,6.12-2.456,13.229,0.196,17.695c8.326,14.071,8.913,34.734,1.489,52.641
		c-6.348,15.31-17.598,26.043-30.88,29.446C100.218,482.973,98.827,483.147,97.458,483.147z"/>
</g>
<g>
	<path style="fill:#F28618;" d="M320.229,512c-3.489,0-7-1.087-10.011-3.342c-12.011-9.011-19.184-25.445-19.184-43.956
		c0-18.522,7.174-34.956,19.184-43.967c3.489-2.62,5.837-8.994,5.837-15.859c0-6.875-2.347-13.25-5.837-15.87
		c-7.369-5.533-8.87-15.994-3.337-23.369c5.543-7.381,16-8.87,23.381-3.337c12.011,9.011,19.184,24.924,19.184,42.576
		c0,17.636-7.174,33.554-19.184,42.565c-2.815,2.109-5.837,8.408-5.837,17.261c0,8.842,3.022,15.142,5.837,17.25
		c7.369,5.533,8.87,16,3.337,23.375C330.317,509.696,325.306,512,320.229,512z"/>
	<path style="fill:#F28618;" d="M414.544,483.147c-1.369,0-2.76-0.174-4.152-0.528c-13.283-3.403-24.533-14.136-30.88-29.446
		c-7.424-17.908-6.837-38.57,1.489-52.636c2.652-4.473,2.728-11.587,0.185-17.712c-2.065-4.979-5.467-8.51-9.119-9.445
		c-8.934-2.288-14.315-11.385-12.033-20.315c2.294-8.929,11.359-14.315,20.315-12.033c13.979,3.582,25.532,14.158,31.685,29.01
		c6.663,16.066,5.805,33.826-2.294,47.506c-2.522,4.261-3.163,13.712,0.62,22.842c2.185,5.266,5.446,9.147,8.316,9.88
		c8.934,2.288,14.315,11.385,12.033,20.315C428.773,478.13,421.99,483.147,414.544,483.147z"/>
	<path style="fill:#F28618;" d="M491.805,433.544c-10.891,0-21.554-4.745-30.49-13.69c-13.566-13.56-20.989-34.511-18.479-52.125
		c0.75-5.239-1.293-11-5.326-15.038c-1.913-1.924-5.891-5.038-11.196-4.277c-9.076,1.288-17.576-5.043-18.892-14.168
		c-1.305-9.125,5.043-17.582,14.173-18.886c14.283-2.049,28.761,2.951,39.522,13.723c11.5,11.494,17.022,27.707,14.782,43.37
		c-1.044,7.245,2.924,17.695,9.021,23.794c1.305,1.299,4.543,4.315,7.5,3.864c9.066-1.353,17.576,5.038,18.892,14.168
		c1.304,9.125-5.043,17.582-14.174,18.886C495.36,433.418,493.588,433.544,491.805,433.544z"/>
</g>
<path style="fill:#FFC033;" d="M256.316,400.696c-134.25,0-240.815-100.527-245.283-104.81c-3.293-3.147-5.152-7.505-5.152-12.06
	s1.859-8.913,5.152-12.06c4.468-4.283,111.033-104.81,245.283-104.81s240.815,100.527,245.282,104.81
	c3.294,3.147,5.152,7.505,5.152,12.06c0,4.555-1.859,8.913-5.152,12.06C497.132,300.169,390.566,400.696,256.316,400.696z"/>
<path style="fill:#F9A926;" d="M256.316,166.957c-0.228,0-0.445,0.03-0.673,0.03v233.678c0.228,0.001,0.445,0.03,0.673,0.03
	c134.25,0,240.815-100.527,245.282-104.81c3.294-3.147,5.152-7.505,5.152-12.06c0-4.555-1.859-8.913-5.152-12.06
	C497.132,267.483,390.566,166.957,256.316,166.957z"/>
<path style="fill:#FFC033;" d="M122.751,166.957c-46.032,0-83.478-37.446-83.478-83.478S76.719,0,122.751,0
	s83.478,37.446,83.478,83.478S168.784,166.957,122.751,166.957z"/>
<path style="fill:#FFEFD9;" d="M122.751,133.565c-27.619,0-50.087-22.468-50.087-50.087s22.468-50.087,50.087-50.087
	s50.087,22.468,50.087,50.087S150.371,133.565,122.751,133.565z"/>
<circle style="fill:#6B7A99;" cx="122.748" cy="83.478" r="16.696"/>
<g>
</g>
<g>
</g>
<g>
</g>
<g>
</g>
<g>
</g>
<g>
</g>
<g>
</g>
<g>
</g>
<g>
</g>
<g>
</g>
<g>
</g>
<g>
</g>
<g>
</g>
<g>
</g>
<g>
</g>
</svg>
